<svg xmlns="http://www.w3.org/2000/svg" viewBox="0 0 256 256"><rect width="256" height="256" fill="none"/><path d="M40,112h80a8,8,0,0,0,8-8V40a8,8,0,0,0-8-8H40a8,8,0,0,0-8,8v64A8,8,0,0,0,40,112Z" fill="none" stroke="#6366f1" stroke-linecap="round" stroke-linejoin="round" stroke-width="16"/><path d="M136,224h80a8,8,0,0,0,8-8V152a8,8,0,0,0-8-8H136a8,8,0,0,0-8,8v64A8,8,0,0,0,136,224Z" fill="none" stroke="#6366f1" stroke-linecap="round" stroke-linejoin="round" stroke-width="16"/><path d="M40,224H88a8,8,0,0,0,8-8V152a8,8,0,0,0-8-8H40a8,8,0,0,0-8,8v64A8,8,0,0,0,40,224Z" fill="none" stroke="#6366f1" stroke-linecap="round" stroke-linejoin="round" stroke-width="16"/><path d="M184,112h32a8,8,0,0,0,8-8V40a8,8,0,0,0-8-8H184a8,8,0,0,0-8,8v64A8,8,0,0,0,184,112Z" fill="none" stroke="#6366f1" stroke-linecap="round" stroke-linejoin="round" stroke-width="16"/></svg>
